<svg xmlns="http://www.w3.org/2000/svg" viewBox="0 0 512 512">
  <rect width="512" height="512" rx="112" fill="#161a1d"/>
  <circle cx="256" cy="256" r="172" fill="#f7f4ef"/>
  <path fill="#16784f" d="M168 184h176c22 0 40 18 40 40v96c0 22-18 40-40 40H168c-22 0-40-18-40-40v-96c0-22 18-40 40-40Zm24 50c-11 0-20 9-20 20s9 20 20 20h128c11 0 20-9 20-20s-9-20-20-20H192Zm0 68c-11 0-20 9-20 20s9 20 20 20h76c11 0 20-9 20-20s-9-20-20-20h-76Z"/>
  <path fill="#245a7a" d="M226 154c0-16 13-29 29-29h52c16 0 29 13 29 29v30H226v-30Z"/>
</svg>
